<svg xmlns="http://www.w3.org/2000/svg" viewBox="0 0 64 80" x="0px" y="0px"><g><circle cx="13" cy="32" r="1"/><circle cx="13" cy="16" r="1"/><circle cx="13" cy="48" r="1"/><path d="M54.586,14,46,5.414V11a3,3,0,0,0,3,3Z"/><path d="M56,16H49a5.006,5.006,0,0,1-5-5V4H11A3,3,0,0,0,8,7V57a3,3,0,0,0,3,3H53a3,3,0,0,0,3-3ZM27,16H43a1,1,0,0,1,0,2H27a1,1,0,0,1,0-2ZM13,51a3,3,0,1,1,3-3A3,3,0,0,1,13,51Zm0-16a3,3,0,1,1,3-3A3,3,0,0,1,13,35Zm0-16a3,3,0,1,1,3-3A3,3,0,0,1,13,19ZM51,49H21a1,1,0,0,1,0-2H51a1,1,0,0,1,0,2Zm0-8H21a1,1,0,0,1,0-2H51a1,1,0,0,1,0,2Zm0-8H21a1,1,0,0,1,0-2H51a1,1,0,0,1,0,2Zm0-7H21a1,1,0,0,1,0-2H51a1,1,0,0,1,0,2Z"/></g><text x="0" y="79" fill="#000000" font-size="5px" font-weight="bold" font-family="'Helvetica Neue', Helvetica, Arial-Unicode, Arial, Sans-serif">Created by Sarote Impheng</text><text x="0" y="84" fill="#000000" font-size="5px" font-weight="bold" font-family="'Helvetica Neue', Helvetica, Arial-Unicode, Arial, Sans-serif">from the Noun Project</text></svg>